<svg width="180" height="114" viewBox="0 0 180 114" fill="none" xmlns="http://www.w3.org/2000/svg">
    <rect x="0.5" y="0.5" width="71" height="37" rx="2.5" fill="#0075FF" fill-opacity="0.11" stroke="#489CFF"/>
    <rect x="108.5" y="0.5" width="71" height="37" rx="2.5" fill="#0075FF" fill-opacity="0.11" stroke="#489CFF"/>
    <rect x="108.5" y="75.5" width="71" height="38" rx="2.5" fill="#0075FF" fill-opacity="0.11" stroke="#489CFF"/>
    <rect x="0.5" y="75.5" width="71" height="38" rx="2.5" fill="#0075FF" fill-opacity="0.11" stroke="#489CFF"/>
    <path d="M100.5 113.5H79.5C77.567 113.5 76 111.933 76 110V76C76 73.5147 73.9853 71.5 71.5 71.5H4C2.067 71.5 0.5 69.933 0.5 68V46C0.5 44.067 2.067 42.5 4 42.5H71.5C73.9853 42.5 76 40.4853 76 38V4C76 2.067 77.567 0.5 79.5 0.5H100.5C102.433 0.5 104 2.067 104 4V38C104 40.4853 106.015 42.5 108.5 42.5H176C177.933 42.5 179.5 44.067 179.5 46V68C179.5 69.933 177.933 71.5 176 71.5H108.5C106.015 71.5 104 73.5147 104 76V85.5V110C104 111.933 102.433 113.5 100.5 113.5Z" fill="#0075FF" fill-opacity="0.28" stroke="#489CFF"/>
</svg>
