<svg width="180" height="116" viewBox="0 0 180 116" fill="none" xmlns="http://www.w3.org/2000/svg">
    <path d="M179.5 112C179.5 113.381 178.381 114.5 177 114.5H18.6547C17.2407 114.5 16.6121 112.723 17.7117 111.834L80.9289 60.7217C82.6616 59.3209 82.6616 56.6791 80.9289 55.2783L17.7117 4.16644C16.6121 3.2774 17.2407 1.5 18.6547 1.5H177C178.381 1.5 179.5 2.61929 179.5 4V112Z" fill="#0075FF" fill-opacity="0.11" stroke="#489CFF"/>
    <path d="M72.3089 60.7278L6.19295 113.88C3.90263 115.721 0.5 114.091 0.5 111.152V4.848C0.5 1.90934 3.90263 0.278945 6.19295 2.12018L72.3089 55.2722C74.0516 56.6732 74.0516 59.3268 72.3089 60.7278Z" fill="#0075FF" fill-opacity="0.28" stroke="#489CFF"/>
</svg>
