<svg width="180" height="116" viewBox="0 0 180 116" fill="none" xmlns="http://www.w3.org/2000/svg">
    <path d="M66.153 43.1609C65.0619 42.2683 65.6931 40.5 67.1028 40.5H176C177.933 40.5 179.5 42.067 179.5 44V72C179.5 73.933 177.933 75.5 176 75.5H67.1028C65.6931 75.5 65.0619 73.7317 66.153 72.8391L80.0328 61.4828C82.2334 59.6823 82.2334 56.3177 80.0328 54.5172L66.153 43.1609Z" fill="#0075FF" fill-opacity="0.11" stroke="#489CFF"/>
    <path d="M17.7087 4.16617C16.6095 3.27695 17.2383 1.5 18.6521 1.5H176C177.933 1.5 179.5 3.067 179.5 5V33C179.5 34.933 177.933 36.5 176 36.5H58.9154C58.1141 36.5 57.3371 36.225 56.7141 35.7211L17.7087 4.16617Z" fill="#0075FF" fill-opacity="0.11" stroke="#489CFF"/>
    <path d="M17.7087 111.834C16.6095 112.723 17.2383 114.5 18.6521 114.5H176C177.933 114.5 179.5 112.933 179.5 111V83C179.5 81.067 177.933 79.5 176 79.5H58.9154C58.1141 79.5 57.3371 79.775 56.7141 80.2789L17.7087 111.834Z" fill="#0075FF" fill-opacity="0.11" stroke="#489CFF"/>
    <path d="M72.3089 60.7278L6.19295 113.88C3.90263 115.721 0.5 114.091 0.5 111.152V4.848C0.5 1.90934 3.90263 0.278945 6.19295 2.12018L72.3089 55.2722C74.0516 56.6732 74.0516 59.3268 72.3089 60.7278Z" fill="#0075FF" fill-opacity="0.28" stroke="#489CFF"/>
</svg>
