<svg width="180" height="116" viewBox="0 0 180 116" fill="none" xmlns="http://www.w3.org/2000/svg">
    <path d="M179.5 111C179.5 112.933 177.933 114.5 176 114.5H18.653C17.2391 114.5 16.6104 112.723 17.7097 111.834L80.2141 61.2787C80.8371 60.7749 81.614 60.5 82.4152 60.5H176C177.933 60.5 179.5 62.067 179.5 64V111Z" fill="#0075FF" fill-opacity="0.11" stroke="#489CFF"/>
    <path d="M179.5 5C179.5 3.067 177.933 1.5 176 1.5H18.653C17.2391 1.5 16.6104 3.27712 17.7097 4.16627L80.2141 54.7213C80.8371 55.2251 81.614 55.5 82.4152 55.5H176C177.933 55.5 179.5 53.933 179.5 52V5Z" fill="#0075FF" fill-opacity="0.11" stroke="#489CFF"/>
    <path d="M72.3089 60.7278L6.19295 113.88C3.90263 115.721 0.5 114.091 0.5 111.152V4.848C0.5 1.90934 3.90263 0.278945 6.19295 2.12018L72.3089 55.2722C74.0516 56.6732 74.0516 59.3268 72.3089 60.7278Z" fill="#0075FF" fill-opacity="0.28" stroke="#489CFF"/>
</svg>
