<?xml version="1.0" encoding="UTF-8"?>
<svg id="Calque_1" data-name="Calque 1" xmlns="http://www.w3.org/2000/svg" viewBox="0 0 1097.71 330.37">
    <path d="m94.04,7.77c-.78-.02-1.55-.04-2.33-.04s-1.55.02-2.33.04C28.19,9.32-10.07,74.87,17.38,129.58l20.42,40.68,26.12,52.05,52.18,6.75,29.51-58.81,20.42-40.68c27.46-54.71-10.81-120.26-71.99-121.81Zm-2.33,111.37c-20.09,0-36.37-16.28-36.37-36.37s16.27-36.37,36.37-36.37,36.36,16.29,36.36,36.37-16.27,36.37-36.36,36.37Z" style="fill: #e52929; stroke: #e52929; stroke-linecap: round; stroke-linejoin: round; stroke-width: 13.11px;"/>
    <polygon points="115.6 303.46 115.6 305.04 100.91 320.69 78.79 320.69 64.1 305.04 64.1 296.79 115.6 303.46" style="fill: #991b1b; stroke: #991b1b; stroke-linecap: round; stroke-linejoin: round; stroke-width: 13.11px;"/>
    <line x1="63.89" y1="240.97" x2="115.6" y2="247.67" style="fill: none; stroke: #991b1b; stroke-linecap: round; stroke-linejoin: round; stroke-width: 13.11px;"/>
    <line x1="63.96" y1="259.58" x2="115.67" y2="266.27" style="fill: none; stroke: #991b1b; stroke-linecap: round; stroke-linejoin: round; stroke-width: 13.11px;"/>
    <line x1="64.1" y1="278.18" x2="115.81" y2="284.88" style="fill: none; stroke: #991b1b; stroke-linecap: round; stroke-linejoin: round; stroke-width: 13.11px;"/>
    <g>
        <path d="m258.76,254.69c-8.19-7.72-12.28-18.16-12.28-31.34,0-1.69.18-4.42.56-8.19l12.14-99.95c1.88-15.43,8.09-27.81,18.63-37.13,10.54-9.32,23.62-13.98,39.25-13.98,14.12,0,25.36,3.95,33.74,11.86,8.37,7.91,12.56,18.54,12.56,31.9,0,1.69-.19,4.24-.57,7.62l-1.41,11.01c-.19.94-.61,1.74-1.27,2.4s-1.46.99-2.4.99h-25.41c-.94,0-1.69-.33-2.26-.99-.56-.66-.75-1.46-.56-2.4l1.41-11.58c.19-.94.28-2.26.28-3.95,0-5.65-1.6-10.16-4.8-13.55-3.2-3.39-7.53-5.08-12.99-5.08-5.84,0-10.83,2.07-14.96,6.21s-6.68,9.6-7.62,16.38l-12.42,100.51c-.19.94-.28,2.26-.28,3.95,0,5.65,1.55,10.16,4.66,13.55,3.11,3.39,7.38,5.08,12.85,5.08,6.02,0,11.2-2.07,15.53-6.21,4.33-4.14,6.87-9.6,7.62-16.38l3.11-27.1c.38-.94,0-1.41-1.13-1.41h-16.66c-.94,0-1.69-.33-2.26-.99-.56-.66-.75-1.46-.56-2.4l2.54-20.61c.19-.94.61-1.74,1.27-2.4.66-.66,1.46-.99,2.4-.99h46.59c.94,0,1.69.33,2.26.99.56.66.75,1.46.56,2.4l-6.49,52.23c-1.88,15.44-8.19,27.81-18.92,37.13-10.73,9.32-23.81,13.98-39.25,13.98-14.12,0-25.27-3.86-33.46-11.58Z" style="fill: #991b1b; stroke-width: 0px;"/>
        <path d="m472.49,93.61c-.66.66-1.46.99-2.4.99h-59.29c-.94,0-1.41.47-1.41,1.41l-6.78,53.36c0,.94.47,1.41,1.41,1.41h35.01c.94,0,1.69.33,2.26.99.57.66.75,1.46.57,2.4l-2.82,21.74c0,.94-.38,1.74-1.13,2.4-.75.66-1.6.99-2.54.99h-35.01c-.94,0-1.41.47-1.41,1.41l-6.78,53.64c0,.94.47,1.41,1.41,1.41h59.01c.94,0,1.69.33,2.26.99.56.66.75,1.46.56,2.4l-2.54,21.46c-.19.94-.61,1.74-1.27,2.4-.66.66-1.46.99-2.4.99h-88.94c-2.07,0-3.11-1.13-3.11-3.39l23.43-190.86c.18-.94.66-1.74,1.41-2.4.75-.66,1.6-.99,2.54-.99h88.94c.94,0,1.69.33,2.26.99.56.66.75,1.46.56,2.4l-2.54,21.46c-.19.94-.61,1.74-1.27,2.4Z" style="fill: #991b1b; stroke-width: 0px;"/>
        <path d="m477.15,254.12c-8.29-8.09-12.42-19.1-12.42-33.03,0-1.5.19-4.33.56-8.47l11.58-94.87c1.88-16.19,8.23-29.17,19.06-38.96,10.82-9.79,24.14-14.68,39.95-14.68,14.3,0,25.6,4,33.88,12,8.28,8,12.42,18.87,12.42,32.61,0,1.88-.19,4.9-.56,9.04l-11.58,94.87c-1.88,16.19-8.24,29.18-19.06,38.96-10.83,9.79-24.14,14.68-39.95,14.68-14.31,0-25.6-4.05-33.88-12.14Zm53.08-22.73c4.33-4.42,6.96-10.21,7.91-17.36l12.14-97.69c.19-.94.28-2.26.28-3.95,0-6.21-1.65-11.1-4.94-14.68-3.3-3.57-7.76-5.36-13.41-5.36-6.21,0-11.44,2.21-15.67,6.63-4.24,4.42-6.83,10.21-7.76,17.36l-11.86,97.69c-.19,1.13-.28,2.73-.28,4.8,0,5.84,1.55,10.5,4.66,13.98,3.11,3.48,7.48,5.22,13.13,5.22,6.21,0,11.48-2.21,15.81-6.63Z" style="fill: #991b1b; stroke-width: 0px;"/>
        <path d="m670.69,67.35c.66-.66,1.46-.99,2.4-.99h25.13c.94,0,1.69.33,2.26.99.56.66.75,1.46.56,2.4l-23.43,190.86c0,.94-.38,1.74-1.13,2.4-.75.66-1.6.99-2.54.99h-25.13c-.94,0-1.69-.33-2.26-.99-.57-.66-.75-1.46-.57-2.4l9.88-79.9c0-.94-.47-1.41-1.41-1.41h-34.73c-.94,0-1.41.47-1.41,1.41l-9.88,79.9c-.19.94-.61,1.74-1.27,2.4s-1.46.99-2.4.99h-25.13c-2.07,0-3.11-1.13-3.11-3.39l23.43-190.86c.18-.94.66-1.74,1.41-2.4.75-.66,1.6-.99,2.54-.99h25.13c.94,0,1.69.33,2.26.99.57.66.75,1.46.57,2.4l-9.88,79.62c0,.94.47,1.41,1.41,1.41h34.73c.94,0,1.41-.47,1.41-1.41l9.88-79.62c.19-.94.61-1.74,1.27-2.4Z" style="fill: #991b1b; stroke-width: 0px;"/>
        <path d="m693.41,260.62l23.43-190.86c.18-.94.66-1.74,1.41-2.4.75-.66,1.6-.99,2.54-.99h25.13c.94,0,1.69.33,2.26.99.57.66.75,1.46.57,2.4l-23.43,190.86c-.19.94-.61,1.74-1.27,2.4s-1.46.99-2.4.99h-25.13c-2.07,0-3.11-1.13-3.11-3.39Z" style="fill: #991b1b; stroke-width: 0px;"/>
        <path d="m843.76,67.35c.66-.66,1.46-.99,2.4-.99h24.85c.94,0,1.69.33,2.26.99.56.66.75,1.46.56,2.4l-23.43,190.86c0,.94-.38,1.74-1.13,2.4-.75.66-1.6.99-2.54.99h-28.52c-1.88,0-3.01-.94-3.39-2.82l-25.97-119.71c-.19-.56-.52-.8-.99-.71-.47.1-.71.42-.71.99l-14.4,118.87c-.19.94-.61,1.74-1.27,2.4s-1.46.99-2.4.99h-24.85c-2.07,0-3.11-1.13-3.11-3.39l23.43-190.86c.18-.94.66-1.74,1.41-2.4.75-.66,1.6-.99,2.54-.99h27.95c1.88,0,3.01.94,3.39,2.82l26.54,118.87c0,.56.23.8.71.71.47-.09.8-.42.99-.99l14.4-118.02c.19-.94.61-1.74,1.27-2.4Z" style="fill: #991b1b; stroke-width: 0px;"/>
        <path d="m990.71,67.35c.56.66.75,1.46.56,2.4l-2.54,21.46c-.19.94-.61,1.74-1.27,2.4s-1.46.99-2.4.99h-34.73c-.75,0-1.32.47-1.69,1.41l-20.05,164.6c-.19.94-.61,1.74-1.27,2.4s-1.46.99-2.4.99h-25.41c-.94,0-1.69-.33-2.26-.99-.57-.66-.75-1.46-.57-2.4l20.33-164.6c0-.94-.47-1.41-1.41-1.41h-32.75c-.94,0-1.69-.33-2.26-.99-.56-.66-.75-1.46-.56-2.4l2.54-21.46c.18-.94.61-1.74,1.27-2.4.66-.66,1.46-.99,2.4-.99h102.21c.94,0,1.69.33,2.26.99Z" style="fill: #991b1b; stroke-width: 0px;"/>
        <path d="m1048.59,261.18l-13.27-81.03c0-.19-.1-.42-.28-.71-.19-.28-.47-.42-.85-.42h-14.68c-.94,0-1.41.47-1.41,1.41l-9.88,80.18c-.19.94-.61,1.74-1.27,2.4s-1.46.99-2.4.99h-25.13c-2.07,0-3.11-1.13-3.11-3.39l23.43-190.86c.18-.94.66-1.74,1.41-2.4.75-.66,1.6-.99,2.54-.99h51.39c13.17,0,23.58,4.38,31.2,13.13,7.62,8.75,11.43,20.38,11.43,34.87,0,1.88-.19,5.08-.57,9.6-1.51,11.67-4.99,21.74-10.45,30.21-5.46,8.47-12.33,14.87-20.61,19.2-.75.19-1.13.75-1.13,1.69l16.38,84.98v1.13c0,1.88-1.04,2.82-3.11,2.82h-26.26c-1.88,0-3.01-.94-3.39-2.82Zm-20.05-165.17l-7.06,56.19c0,.94.38,1.41,1.13,1.41h16.94c7.34,0,13.5-3.25,18.49-9.74,4.99-6.49,7.48-15.1,7.48-25.83,0-7.34-1.69-13.08-5.08-17.22-3.39-4.14-8-6.21-13.83-6.21h-16.66c-.94,0-1.41.47-1.41,1.41Z" style="fill: #991b1b; stroke-width: 0px;"/>
    </g>
</svg>
